<svg xmlns="http://www.w3.org/2000/svg" height="48" viewBox="0 -960 960 960" width="48"><path d="M480.348-107.369q-157.066 0-265.022-49.957Q107.369-207.282 107.369-280v-400q0-71.667 109-122.682 108.999-51.014 263.507-51.014 154.028 0 263.924 51.014Q853.696-751.667 853.696-680v400q0 72.636-108.674 122.634-108.674 49.997-264.674 49.997Zm-.229-504.196q84.001 0 172.81-25.468 88.81-25.467 120.006-58.717-31.696-32.25-121.66-58.717-89.964-26.468-171.554-26.468-85.591 0-173.808 25.75T187.13-696q31.066 35 117.765 59.717 86.7 24.718 175.224 24.718ZM479-396.13q40.935 0 81.911-4.783 40.977-4.783 79.173-14.065 38.195-9.283 74.297-22.598t66.554-29.881v-142.347q-31.131 17-66.663 30-35.533 13-74.218 21.968-38.684 8.967-79.119 13.685-40.435 4.717-82.021 4.717-40.456 0-81.916-4.717-41.461-4.718-80.065-13.914t-73.671-21.967q-35.066-12.772-63.132-29.772v142.347q27.5 16.566 62.6 29.699 35.099 13.134 73.815 22.598 38.716 9.464 79.989 14.247 41.273 4.783 82.466 4.783Zm1 216q46.765.565 97.027-7.713 50.262-8.279 92.922-21.935 42.66-13.657 72.996-31.439Q773.281-259 780.935-277v-115.565q-30.131 16.566-65.378 29.631-35.247 13.065-74.072 21.815-38.826 8.75-79.948 13.25-41.123 4.5-82.529 4.5-41.606 0-83.209-4.782-41.603-4.783-80.071-13.533-38.467-8.75-73.037-21.718-34.57-12.968-62.561-29.163v116.535q6.696 17.53 36.261 34.747 29.566 17.218 72.283 30.968t92.837 21.967Q431.63-180.13 480-180.13Z"/></svg>